<?xml version="1.0" ?><!DOCTYPE svg  PUBLIC '-//W3C//DTD SVG 1.1//EN'  'http://www.w3.org/Graphics/SVG/1.1/DTD/svg11.dtd'><svg id="Layer_1" style="enable-background:new 0 0 512 512;" version="1.1" viewBox="0 0 512 512" xml:space="preserve" xmlns="http://www.w3.org/2000/svg" xmlns:xlink="http://www.w3.org/1999/xlink"><style type="text/css">
	.st0{fill:#FFFFFF;}
	.st1{fill:#4CB6AC;}
	.st2{fill:#263238;}
	.st3{fill:#F48FB1;}
</style><g><g id="XMLID_842_"><g id="XMLID_448_"><path class="st0" d="M228.2,322.1h-96.7c-9.8,0-17.8,8-17.8,17.8v0c0,9.8,8,17.8,17.8,17.8h10.2      c9.8,0,17.8,8,17.8,17.8V457c0,9.8,8,17.8,17.8,17.8h0c9.8,0,17.8-8,17.8-17.8v-81.4c0-9.8,8-17.8,17.8-17.8h15.3      c9.8,0,17.8-8,17.8-17.8v0C246,330.1,238,322.1,228.2,322.1z" id="XMLID_690_"/><path class="st1" d="M213.5,322.1h-96.7c-9.8,0-17.8,8-17.8,17.8v0c0,9.8,8,17.8,17.8,17.8H127      c9.8,0,17.8,8,17.8,17.8V457c0,9.8,8,17.8,17.8,17.8h0c9.8,0,17.8-8,17.8-17.8v-81.4c0-9.8,8-17.8,17.8-17.8h15.3      c9.8,0,17.8-8,17.8-17.8v0C231.3,330.1,223.3,322.1,213.5,322.1z" id="XMLID_672_"/><path class="st2" d="M177.3,485c-15.4,0-28-12.6-28-28v-81.4c0-4.2-3.4-7.6-7.6-7.6h-10.2      c-15.4,0-28-12.6-28-28c0-15.4,12.6-28,28-28h96.7c15.4,0,28,12.6,28,28c0,15.4-12.6,28-28,28h-15.3c-4.2,0-7.6,3.4-7.6,7.6V457      C205.3,472.4,192.7,485,177.3,485z M131.5,332.3c-4.2,0-7.6,3.4-7.6,7.6c0,4.2,3.4,7.6,7.6,7.6h10.2c15.4,0,28,12.6,28,28V457      c0,4.2,3.4,7.6,7.6,7.6c4.2,0,7.6-3.4,7.6-7.6v-81.4c0-15.4,12.6-28,28-28h15.3c4.2,0,7.6-3.4,7.6-7.6c0-4.2-3.4-7.6-7.6-7.6      H131.5z" id="XMLID_673_"/></g><g id="XMLID_390_"><path class="st0" d="M302.5,378c0,0,84.5-85.2-0.5-173.1v-83.3c0,0,169.4,107,51.2,293.3      C353.2,414.9,313.3,448.5,302.5,378z" id="XMLID_383_"/><path class="st1" d="M281.4,378c0,0,86.6-85.2-1.4-173.1v-83.3c0,0,169.9,107,51.6,293.3      C331.6,414.9,292.1,448.5,281.4,378z" id="XMLID_492_"/><path class="st2" d="M332.6,433.1c-3.5,0-7.1-0.6-10.8-1.9c-15.1-5.7-25-23-29.4-51.6l-0.8-5.1l3.7-3.6      c3.3-3.3,77.1-79.3-1-158.8l-3.3-3v-106l16,9.9c3,1.9,74.5,47.7,93.5,132.4c12.5,55.6-0.5,114.5-38.8,174.9l-0.8,1.3l-1.2,1      C359.1,423.2,347.2,433.1,332.6,433.1z M313.8,381.2c3.2,17.2,8.6,28.3,15.4,30.9c5.9,2.2,13.7-1.9,16.9-4.1      c89.4-142.5,3.9-234.9-33.1-266.1v59C387,282.7,329.9,362.6,313.8,381.2z" id="XMLID_493_"/></g><g id="XMLID_424_"><path class="st0" d="M405.2,500.2H78.6c-2.2,0-3.9-1.8-3.9-3.9v-33.7c0-2.2,1.8-3.9,3.9-3.9h326.6      c2.2,0,3.9,1.8,3.9,3.9v33.7C409.1,498.5,407.4,500.2,405.2,500.2z" id="XMLID_734_"/><path class="st1" d="M378.2,485h-293c-11.5,0-20.8-9.3-20.8-20.8v0c0-11.5,9.3-20.8,20.8-20.8h293      c11.5,0,20.8,9.3,20.8,20.8v0C399,475.7,389.7,485,378.2,485z" id="XMLID_488_"/><path class="st2" d="M389.2,510.4H94.6c-16.6,0-30.1-13.5-30.1-30.1v-1.6c0-16.6,13.5-30.1,30.1-30.1h294.6      c16.6,0,30.1,13.5,30.1,30.1v1.6C419.3,496.9,405.8,510.4,389.2,510.4z M94.6,468.9c-5.4,0-9.8,4.4-9.8,9.8v1.6      c0,5.4,4.4,9.8,9.8,9.8h294.6c5.4,0,9.8-4.4,9.8-9.8v-1.6c0-5.4-4.4-9.8-9.8-9.8H94.6z" id="XMLID_489_"/></g><g id="XMLID_426_"><path class="st0" d="M445.5,54.4L338.8,161.2c-1.3,1.3-3.3,1.3-4.6,0l-29.5-29.5c-1.3-1.3-1.3-3.3,0-4.6      L411.5,20.4c1.3-1.3,3.3-1.3,4.6,0l29.5,29.5C446.8,51.1,446.8,53.2,445.5,54.4z" id="XMLID_470_"/><path class="st3" d="M435.4,39.2L328.6,145.9c-1.3,1.3-3.3,1.3-4.6,0l-29.5-29.5c-1.3-1.3-1.3-3.3,0-4.6      L401.3,5.1c1.3-1.3,3.3-1.3,4.6,0l29.5,29.5C436.6,35.9,436.6,37.9,435.4,39.2z" id="XMLID_484_"/><path class="st2" d="M336.5,166.8c-6.8,0-13.6-2.6-18.8-7.8l-10.9-10.9c-10.4-10.4-10.4-27.2,0-37.6L395,22.5      c10.4-10.4,27.2-10.4,37.6,0l10.9,10.9c10.4,10.4,10.4,27.2,0,37.6l-88.1,88.1C350.1,164.2,343.3,166.8,336.5,166.8z       M413.8,35.1c-1.6,0-3.2,0.6-4.4,1.8L321.2,125c-2.4,2.4-2.4,6.4,0,8.8l10.9,10.9c2.4,2.4,6.4,2.4,8.8,0L429,56.5      c2.4-2.4,2.4-6.4,0-8.8l-10.8-10.9C417,35.7,415.4,35.1,413.8,35.1z" id="XMLID_485_"/></g><g id="XMLID_425_"><g id="XMLID_427_"><path class="st0" d="M375,457c0,0,0.2-3.8,0.2-5c0-39.9-32.4-73.2-72.3-73.2s-72.3,33.6-72.3,73.6       c0,1.1,0.1,4.5,0.2,4.5H375z" id="XMLID_704_"/><path class="st1" d="M354.6,457c0,0,0.2-3.8,0.2-5c0-39.9-32.4-71.9-72.3-71.9S230.7,415,230.7,457       c0,0,46.3,0,46.3,0H354.6z" id="XMLID_480_"/><path class="st2" d="M375,464H230.7c-4.7,0-10.3-2.1-10.3-13.4c0-45.7,37-82.6,82.5-82.6       c45.5,0,82.5,36.9,82.5,82.5C385.3,461.8,379.7,464,375,464z M241,446h123.6c-3.3-31-29.7-55.8-61.8-55.8       C270.8,390.2,244.3,415,241,446z" id="XMLID_481_"/></g></g><g id="XMLID_391_"><path class="st0" d="M413,109.2L225.7,296.5c-2.3,2.3-6.1,2.3-8.4,0l-50.6-50.6c-2.3-2.3-2.3-6.1,0-8.4      L354,50.3c2.3-2.3,6.1-2.3,8.4,0l50.6,50.6C415.3,103.2,415.3,106.9,413,109.2z" id="XMLID_418_"/><path class="st1" d="M370.2,126.5L227.7,269c-14.7,14.7-38.4,14.7-53.1,0l-5.8-5.8c-14.7-14.7-14.7-38.4,0-53.1      L311.3,67.6c14.7-14.7,38.4-14.7,53.1,0l5.8,5.8C384.9,88,384.9,111.8,370.2,126.5z" id="XMLID_49_"/><path class="st2" d="M221.5,298.4c-10.3,0-20.6-3.9-28.5-11.8l-16.3-16.3c-7.6-7.6-11.8-17.7-11.8-28.5      c0-10.8,4.2-20.9,11.8-28.5L329.7,60.2c15.7-15.7,41.3-15.7,57,0l16.3,16.3c15.7,15.7,15.7,41.3,0,57L250,286.6      C242.1,294.4,231.8,298.4,221.5,298.4z M358.2,68.8c-5.3,0-10.3,2.1-14.1,5.8L191.1,227.7c-3.8,3.8-5.8,8.8-5.8,14.1      c0,5.3,2.1,10.3,5.8,14.1l16.3,16.3c7.8,7.8,20.4,7.8,28.2,0l153.1-153.1c3.8-3.8,5.8-8.8,5.8-14.1c0-5.3-2.1-10.3-5.8-14.1      l-16.3-16.3C368.6,70.8,363.6,68.8,358.2,68.8z" id="XMLID_475_"/></g><g id="XMLID_429_"><line class="st0" id="XMLID_47_" x1="183.9" x2="379.5" y1="263.1" y2="67.4"/><rect class="st2" height="276.7" id="XMLID_48_" transform="matrix(0.7071 0.7071 -0.7071 0.7071 199.3451 -150.7977)" width="20.4" x="271.5" y="26.9"/></g></g></g></svg>